<?xml version="1.0" encoding="UTF-8"?>
<svg width="110px" height="333px" viewBox="0 0 110 333" version="1.1" xmlns="http://www.w3.org/2000/svg" xmlns:xlink="http://www.w3.org/1999/xlink">
    <!-- Generator: Sketch 44.1 (41455) - http://www.bohemiancoding.com/sketch -->
    <title>Icon</title>
    <desc>Created with Sketch.</desc>
    <defs></defs>
    <g id="Page-1" stroke="none" stroke-width="1" fill="none" fill-rule="evenodd">
        <g id="Artboard" transform="translate(-545.000000, -320.000000)" fill="#000000">
            <g id="Group" transform="translate(538.500000, 312.000000)">
                <g id="Group-4" transform="translate(0.000000, 11.000000)">
                    <path d="M12.0792826,117.111699 C12.0792826,117.111699 11.6445439,104.740088 20.0254339,96.4593155 C28.4063238,88.1785427 112.765094,2.6037235 112.765094,2.6037235 C112.765094,2.6037235 113.046234,16.3607678 104.649542,25.04563 C96.2528511,33.7304922 12.0792826,117.111699 12.0792826,117.111699 Z" id="Path-3"></path>
                </g>
                <g id="Group-2" transform="translate(12.000000, 217.000000)">
                    <path d="M0.0792825904,118.248047 C0.0792825904,118.248047 -0.355456055,105.876436 8.02543386,97.5956635 C16.4063238,89.3148907 100.765094,3.74007158 100.765094,3.74007158 C100.765094,3.74007158 101.046234,17.4971159 92.6495423,26.1819781 C84.2528511,34.8668403 0.0792825904,118.248047 0.0792825904,118.248047 Z" id="Path-3-Copy-2"></path>
                </g>
                <g id="Group-3" transform="translate(9.000000, 116.000000)">
                    <path d="M3.07928259,114.679873 C3.07928259,114.679873 2.64454394,102.308262 11.0254339,94.0274895 C19.4063238,85.7467167 103.765094,0.171897541 103.765094,0.171897541 C103.765094,0.171897541 104.046234,13.9289419 95.6495423,22.6138041 C87.2528511,31.2986663 3.07928259,114.679873 3.07928259,114.679873 Z" id="Path-3-Copy"></path>
                </g>
            </g>
        </g>
        <g id="Icon"></g>
    </g>
</svg>