<?xml version="1.0" encoding="UTF-8"?>
<svg width="103px" height="325px" viewBox="0 0 103 325" version="1.1" xmlns="http://www.w3.org/2000/svg" xmlns:xlink="http://www.w3.org/1999/xlink">
    <!-- Generator: Sketch 48.2 (47327) - http://www.bohemiancoding.com/sketch -->
    <title>export</title>
    <desc>Created with Sketch.</desc>
    <defs></defs>
    <g id="Page-1" stroke="none" stroke-width="1" fill="none" fill-rule="evenodd">
        <g id="export">
            <g id="Group" transform="translate(-10.500000, 0.000000)">
                <g id="X">
                    <polygon id="xclip" fill="#FFFFFF" points="9.80050658 2.9192458 12.0628322 7.45284458 10.2582461 9.79004731 10.9660469 13.5489738 9.18218153 17.8569993 0.756855293 12.0900469"></polygon>
                    <path d="M11.0792826,118.111699 C11.0792826,106.091999 11.0818092,106.111409 16.3827266,100.663321 C16.3827266,100.663321 112.769989,2 112.769989,2 C112.769989,14 112.769989,14 106.995705,19.9117544 L11.0792826,118.111699 Z" id="main" fill="#000000"></path>
                </g>
                <g id="Z" transform="translate(8.000000, 207.000000)">
                    <polygon id="zclip" fill="#FFFFFF" points="111.61409 5.35043752 102.262297 9.39307821 102.262297 11.9368834 105.038427 15.5011515"></polygon>
                    <path d="M3.07928259,117.611699 C3.07928259,105.591999 3.08180919,105.611409 8.38272656,100.163321 C8.38272656,100.163321 104.769989,1.5 104.769989,1.5 C104.769989,13.5 104.769989,13.5 98.9957054,19.4117544 L3.07928259,117.611699 Z" id="main" fill="#000000"></path>
                </g>
                <g id="Y" transform="translate(9.000000, 104.000000)" fill="#000000">
                    <path d="M2.07928259,116.111699 C2.07928259,104.091999 2.08180919,104.111409 7.38272656,98.663321 C7.38272656,98.663321 103.769989,0 103.769989,0 C103.769989,12 103.769989,12 97.9957054,17.9117544 L2.07928259,116.111699 Z" id="main-copy"></path>
                </g>
            </g>
        </g>
    </g>
</svg>